<?xml version="1.0" encoding="UTF-8"?>
<svg width="89px" height="203px" viewBox="0 0 89 203" version="1.1" xmlns="http://www.w3.org/2000/svg" xmlns:xlink="http://www.w3.org/1999/xlink">
    <!-- Generator: Sketch 52.3 (67297) - http://www.bohemiancoding.com/sketch -->
    <title>Group 2</title>
    <desc>Created with Sketch.</desc>
    <g id="Page-1" stroke="none" stroke-width="1" fill="none" fill-rule="evenodd">
        <g id="Group-2" transform="translate(5.000000, 1.000000)">
            <g id="Group">
                <path d="M0,180 L0,22 C-1.3527075e-16,20.8954305 0.8954305,20 2,20 L20,20" id="Path-11-Copy" stroke="#979797" stroke-width="10"></path>
                <path d="M33.2103928,195.521901 L72.2103928,182.301562 C76.2691649,180.925707 79,177.116531 79,172.830903 L79,27.169097 C79,22.883469 76.2691649,19.0742932 72.2103928,17.6984382 L33.2103928,4.47809926 C27.9798924,2.70504827 22.3023922,5.50786482 20.5293412,10.7383652 C20.1788135,11.772422 20,12.8569051 20,13.9487581 L20,186.051242 C20,191.574089 24.4771525,196.051242 30,196.051242 C31.091853,196.051242 32.1763361,195.872428 33.2103928,195.521901 Z" id="Path-12-Copy" stroke="#979797" stroke-width="10"></path>
                <path d="" id="Path-13-Copy" stroke="#979797" stroke-width="5"></path>
                <ellipse id="Oval-Copy-2" fill="#979797" cx="35" cy="100.5" rx="5" ry="8.5"></ellipse>
                <path d="M20,140.5 L0,140.5" id="Path-14-Copy" stroke="#979797" stroke-width="5"></path>
            </g>
        </g>
    </g>
</svg>